<?xml version="1.0" encoding="UTF-8"?>
<svg xmlns="http://www.w3.org/2000/svg" xmlns:xlink="http://www.w3.org/1999/xlink" width="300px" height="22px" viewBox="0 0 300 22" version="1.1">
<g id="surface1">
<path style=" stroke:none;fill-rule:nonzero;fill:rgb(100%,100%,100%);fill-opacity:1;" d="M 87.503906 9.300781 C 87.585938 9.414062 87.722656 9.480469 87.867188 9.480469 L 115.210938 9.480469 C 115.433594 9.480469 115.621094 9.324219 115.65625 9.105469 L 117.082031 0.527344 C 117.128906 0.25 116.917969 0 116.640625 0 L 81.542969 0 C 81.175781 0 80.960938 0.421875 81.179688 0.71875 Z M 87.503906 9.300781 "/>
<path style=" stroke:none;fill-rule:nonzero;fill:rgb(100%,100%,100%);fill-opacity:1;" d="M 96.933594 10.949219 C 96.847656 10.832031 96.714844 10.761719 96.570312 10.761719 L 70.796875 10.761719 C 70.578125 10.761719 70.394531 10.917969 70.355469 11.132812 L 68.488281 21.46875 C 68.4375 21.746094 68.652344 22 68.933594 22 L 104.03125 22 C 104.398438 22 104.613281 21.582031 104.394531 21.285156 Z M 96.933594 10.949219 "/>
<path style=" stroke:none;fill-rule:nonzero;fill:rgb(100%,100%,100%);fill-opacity:1;" d="M 118.683594 0.382812 C 118.722656 0.164062 118.910156 0.00390625 119.128906 0.00390625 L 157.5 0.00390625 C 157.773438 0.00390625 157.984375 0.246094 157.945312 0.519531 L 156.722656 9.09375 C 156.6875 9.316406 156.5 9.480469 156.273438 9.480469 L 117.703125 9.480469 C 117.425781 9.480469 117.210938 9.230469 117.257812 8.957031 Z M 118.683594 0.382812 "/>
<path style=" stroke:none;fill-rule:nonzero;fill:rgb(100%,100%,100%);fill-opacity:1;" d="M 129.6875 11.140625 C 129.722656 10.921875 129.910156 10.761719 130.132812 10.761719 L 143.25 10.761719 C 143.527344 10.761719 143.738281 11.011719 143.695312 11.285156 L 142.039062 21.546875 C 142.003906 21.765625 141.8125 21.925781 141.59375 21.925781 L 128.476562 21.925781 C 128.199219 21.925781 127.988281 21.675781 128.03125 21.402344 Z M 129.6875 11.140625 "/>
<path style=" stroke:none;fill-rule:nonzero;fill:rgb(100%,100%,100%);fill-opacity:1;" d="M 159.53125 0.421875 C 159.566406 0.207031 159.753906 0.046875 159.972656 0.046875 L 198.53125 0.046875 C 198.808594 0.046875 199.019531 0.296875 198.976562 0.574219 L 197.546875 9.160156 C 197.511719 9.378906 197.324219 9.535156 197.101562 9.535156 L 170.140625 9.535156 C 169.917969 9.535156 169.730469 9.695312 169.695312 9.914062 L 167.785156 21.566406 C 167.75 21.785156 167.558594 21.945312 167.339844 21.945312 L 156.300781 21.945312 C 156.019531 21.945312 155.808594 21.691406 155.855469 21.414062 Z M 159.53125 0.421875 "/>
<path style=" stroke:none;fill-rule:nonzero;fill:rgb(100%,100%,100%);fill-opacity:1;" d="M 175.992188 11.488281 C 175.773438 11.1875 175.988281 10.769531 176.355469 10.769531 L 189.683594 10.769531 C 189.828125 10.769531 189.960938 10.839844 190.046875 10.957031 L 195.65625 18.628906 C 195.730469 18.730469 195.757812 18.855469 195.734375 18.976562 L 195.265625 21.574219 C 195.226562 21.789062 195.039062 21.945312 194.824219 21.945312 L 183.8125 21.945312 C 183.667969 21.945312 183.535156 21.875 183.449219 21.757812 Z M 175.992188 11.488281 "/>
<path style=" stroke:none;fill-rule:nonzero;fill:rgb(100%,100%,100%);fill-opacity:1;" d="M 200.460938 0.421875 C 200.5 0.207031 200.6875 0.046875 200.90625 0.046875 L 211.898438 0.046875 C 212.179688 0.046875 212.390625 0.300781 212.34375 0.578125 L 208.667969 21.570312 C 208.632812 21.785156 208.445312 21.945312 208.226562 21.945312 L 197.230469 21.945312 C 196.953125 21.945312 196.738281 21.691406 196.789062 21.414062 Z M 200.460938 0.421875 "/>
<path style=" stroke:none;fill-rule:nonzero;fill:rgb(100%,100%,100%);fill-opacity:1;" d="M 213.933594 0.421875 C 213.972656 0.207031 214.160156 0.046875 214.378906 0.046875 L 225.371094 0.046875 C 225.652344 0.046875 225.863281 0.300781 225.816406 0.578125 L 224.386719 8.738281 C 224.351562 8.929688 224.5625 9.074219 224.730469 8.96875 L 238.71875 0.117188 C 238.792969 0.0703125 238.875 0.046875 238.960938 0.046875 L 252.9375 0.046875 C 253.214844 0.046875 253.425781 0.296875 253.378906 0.574219 L 252.945312 3.183594 C 252.921875 3.3125 252.847656 3.421875 252.738281 3.492188 L 241.371094 10.496094 C 241.175781 10.617188 241.257812 10.914062 241.484375 10.914062 L 251.875 11.023438 C 252.015625 11.027344 252.152344 11.09375 252.234375 11.210938 L 259.546875 21.226562 C 259.761719 21.523438 259.550781 21.941406 259.179688 21.941406 L 238.820312 21.898438 C 238.675781 21.898438 238.542969 21.828125 238.457031 21.714844 L 230.691406 11.210938 C 230.605469 11.09375 230.472656 11.027344 230.328125 11.027344 L 224.367188 11.027344 C 224.144531 11.027344 223.957031 11.183594 223.921875 11.398438 L 222.140625 21.570312 C 222.105469 21.785156 221.917969 21.945312 221.695312 21.945312 L 210.703125 21.945312 C 210.425781 21.945312 210.210938 21.691406 210.261719 21.414062 Z M 213.933594 0.421875 "/>
<path style=" stroke:none;fill-rule:nonzero;fill:rgb(100%,100%,100%);fill-opacity:1;" d="M 254.96875 0.421875 C 255.007812 0.207031 255.195312 0.046875 255.414062 0.046875 L 299.246094 0.046875 C 299.523438 0.046875 299.738281 0.300781 299.691406 0.574219 L 298.265625 9.042969 C 298.226562 9.257812 298.042969 9.417969 297.824219 9.417969 L 265.613281 9.585938 C 265.375 9.589844 265.175781 9.777344 265.164062 10.019531 L 265.152344 10.328125 C 265.136719 10.585938 265.34375 10.804688 265.601562 10.800781 L 279.066406 10.734375 C 279.210938 10.734375 279.347656 10.804688 279.433594 10.921875 L 286.867188 21.230469 C 287.082031 21.527344 286.871094 21.945312 286.503906 21.945312 L 261.800781 21.945312 C 261.65625 21.945312 261.519531 21.875 261.433594 21.757812 L 253.34375 10.472656 C 253.269531 10.375 253.242188 10.25 253.265625 10.132812 Z M 254.96875 0.421875 "/>
<path style=" stroke:none;fill-rule:evenodd;fill:rgb(100%,100%,100%);fill-opacity:1;" d="M 4.125 0 C 3.820312 0 3.5625 0.21875 3.511719 0.515625 L 0.0078125 21.101562 C -0.0546875 21.480469 0.234375 21.828125 0.621094 21.828125 L 16.867188 21.828125 C 24.824219 21.390625 25.042969 11.691406 20.582031 10.292969 C 25.949219 8.167969 25.222656 0 18.105469 0 Z M 8.941406 4.023438 C 8.796875 4.023438 8.671875 4.128906 8.640625 4.273438 L 7.84375 8.105469 C 7.804688 8.296875 7.945312 8.480469 8.140625 8.480469 L 16.179688 8.480469 C 17.15625 8.480469 18.347656 7.917969 18.347656 6.40625 C 18.347656 4.898438 17.324219 4.023438 16.179688 4.023438 Z M 7.402344 12.820312 C 7.253906 12.820312 7.125 12.925781 7.097656 13.070312 L 6.285156 17.441406 C 6.25 17.632812 6.394531 17.808594 6.589844 17.808594 L 14.941406 17.808594 C 16.761719 17.808594 18.035156 16.394531 18.035156 15.15625 C 18.035156 13.597656 17.132812 12.917969 15.558594 12.820312 Z M 7.402344 12.820312 "/>
<path style=" stroke:none;fill-rule:nonzero;fill:rgb(100%,100%,100%);fill-opacity:1;" d="M 27.828125 0.515625 C 27.878906 0.21875 28.136719 0 28.4375 0 L 47.832031 0 C 48.230469 0 48.527344 0.375 48.433594 0.765625 L 47.683594 3.902344 C 47.617188 4.183594 47.371094 4.378906 47.082031 4.378906 L 33.859375 4.378906 C 33.558594 4.378906 33.304688 4.59375 33.25 4.886719 L 32.664062 8.074219 C 32.59375 8.453125 32.886719 8.804688 33.273438 8.804688 L 45.492188 8.804688 C 45.875 8.804688 46.164062 9.144531 46.105469 9.519531 L 45.632812 12.539062 C 45.585938 12.839844 45.328125 13.0625 45.023438 13.0625 L 32.308594 13.0625 C 32.011719 13.0625 31.753906 13.277344 31.699219 13.570312 L 31.054688 17.09375 C 30.984375 17.472656 31.277344 17.824219 31.664062 17.824219 L 45.109375 17.824219 C 45.488281 17.824219 45.777344 18.164062 45.71875 18.539062 L 45.292969 21.300781 C 45.246094 21.605469 44.984375 21.828125 44.679688 21.828125 L 24.933594 21.828125 C 24.550781 21.828125 24.257812 21.480469 24.324219 21.101562 Z M 27.828125 0.515625 "/>
<path style=" stroke:none;fill-rule:nonzero;fill:rgb(100%,100%,100%);fill-opacity:1;" d="M 50.398438 0.875 C 50.507812 0.367188 50.953125 0 51.476562 0 L 74.238281 0 C 74.9375 0 75.457031 0.640625 75.316406 1.324219 L 74.84375 3.574219 C 74.738281 4.085938 74.289062 4.449219 73.769531 4.449219 L 65.300781 4.449219 C 65.027344 4.449219 64.796875 4.648438 64.757812 4.917969 L 62.273438 20.992188 C 62.191406 21.53125 61.730469 21.925781 61.1875 21.925781 L 57.488281 21.925781 C 56.808594 21.925781 56.292969 21.316406 56.402344 20.648438 L 58.945312 5.089844 C 58.996094 4.753906 58.738281 4.449219 58.402344 4.449219 L 51.003906 4.449219 C 50.308594 4.449219 49.789062 3.808594 49.929688 3.125 Z M 50.398438 0.875 "/>
</g>
</svg>
